<svg width="36" height="36" viewBox="0 0 36 36" fill="none" xmlns="http://www.w3.org/2000/svg">
<circle cx="18" cy="18" r="18" fill="#EDE8E3"/>
<path d="M21.776 20.624C21.776 19.36 21.072 18.448 19.792 18C20.816 17.472 21.408 16.624 21.408 15.568C21.408 13.6 19.92 12.512 17.504 12.512H13.184V24H17.68C20.208 24 21.776 22.752 21.776 20.624ZM17.312 14.432C18.496 14.432 19.104 14.944 19.104 15.76C19.104 16.592 18.496 17.104 17.312 17.104H15.392V14.432H17.312ZM17.488 19.04C18.8 19.04 19.488 19.616 19.488 20.528C19.488 21.504 18.8 22.08 17.488 22.08H15.392V19.04H17.488Z" fill="#060710"/>
</svg>
